<?xml version="1.0" standalone="no"?><!DOCTYPE svg PUBLIC "-//W3C//DTD SVG 1.1//EN" "http://www.w3.org/Graphics/SVG/1.1/DTD/svg11.dtd"><svg t="1790701690835" class="icon" viewBox="0 0 1194 1024" version="1.1" xmlns="http://www.w3.org/2000/svg" p-id="19678" xmlns:xlink="http://www.w3.org/1999/xlink" width="233.203125" height="200"><path d="M730.624 685.568c-142.25-8.107-278.357 14.848-408.49 72.277A773.803 773.803 0 0 0 0 1024c1.707-10.41 3.243-20.736 5.12-31.147a782.507 782.507 0 0 1 5.803-31.146C38.4 834.133 82.432 713.3 151.296 602.88c70.656-113.067 161.28-203.776 280.576-261.973a645.973 645.973 0 0 1 243.456-62.976c18.005-1.28 36.096-1.707 54.784-2.646V5.461l3.328-2.645 460.885 477.867-463.701 475.989V685.568z" p-id="19679"></path></svg>