<svg xmlns="http://www.w3.org/2000/svg" viewBox="0 0 1024 1024" fill="currentColor">
  <path d="M862.939 107.111H163.045c-89.074 0-159.06 75.98-159.06 172.691v483.547c0 96.709 69.987 172.697 159.06 172.697h699.893c89.074 0 159.077-75.988 159.077-172.697V279.801c-.008-96.71-70.002-172.69-159.076-172.69zm95.445 656.237c0 55.266-44.542 103.622-95.445 103.622H163.045c-50.895 0-95.437-48.356-95.437-103.622V279.801c0-55.252 44.542-103.606 95.437-103.606h699.893c50.911 0 95.445 48.354 95.445 103.606v483.547z"/>
  <path d="M225.257 687.101c61.167 50.12 145.284 61.685 217.703 29.916 72.411-31.767 120.874-101.495 125.409-180.442l-202.134 14.219-140.978 136.307zm340.578-197.35c-15.739-93.698-92.348-165.205-186.907-174.462V502.98l186.907-13.229zM332.04 315.939c-74.914 9.5-138.975 58.467-167.818 128.257-28.841 69.79-18.037 149.695 28.301 209.315L332.04 518.686V315.939zm524.347 94.857H698.73a21.333 21.333 0 0 1-18.698-32.073 21.337 21.337 0 0 1 18.698-10.585h157.657a21.336 21.336 0 0 1 18.696 10.585 21.33 21.33 0 0 1 0 21.482 21.327 21.327 0 0 1-18.696 10.591zm0 116.591H698.73c-11.786 0-21.333-9.549-21.333-21.333 0-11.776 9.547-21.325 21.333-21.325h157.657c11.595.251 20.869 9.73 20.869 21.325 0 11.604-9.274 21.082-20.869 21.333zm0 117.526H698.73c-11.786 0-21.333-9.557-21.333-21.333 0-11.784 9.547-21.333 21.333-21.333h157.657c11.674.149 21.058 9.657 21.058 21.333 0 11.674-9.384 21.184-21.058 21.333z"/>
</svg>
