<?xml version="1.0" standalone="no"?><!DOCTYPE svg PUBLIC "-//W3C//DTD SVG 1.1//EN" "http://www.w3.org/Graphics/SVG/1.1/DTD/svg11.dtd"><svg t="1779131839183" class="icon" viewBox="0 0 1024 1024" version="1.1" xmlns="http://www.w3.org/2000/svg" p-id="7466" xmlns:xlink="http://www.w3.org/1999/xlink" width="200" height="200"><path d="M512 512H0A512 512 0 1 0 512 0 512 512 0 0 0 0 512z" fill="#4192D8" p-id="7467"></path><path d="M326.180571 630.052571v26.368a52.48 52.48 0 0 0 48.530286 52.370286H431.140571a26.258286 26.258286 0 1 1 0 52.48h-52.48a104.96 104.96 0 0 1-104.96-104.96v-26.258286a26.258286 26.258286 0 1 1 52.48 0z m344.283429-149.174857l104.96 262.436572a13.129143 13.129143 0 0 1-12.214857 17.993143h-28.306286a13.129143 13.129143 0 0 1-12.178286-8.228572l-28.196571-70.473143h-107.117714l-28.16 70.473143a13.129143 13.129143 0 0 1-12.214857 8.228572h-28.233143a13.129143 13.129143 0 0 1-12.178286-17.993143l104.96-262.436572a13.129143 13.129143 0 0 1 12.178286-8.228571h34.706285a13.129143 13.129143 0 0 1 12.214858 8.228571z m-29.257143 67.437715l-32.914286 81.737142h65.462858z m-236.178286-272.530286v39.350857h91.721143a13.129143 13.129143 0 0 1 13.129143 13.129143v157.44a13.129143 13.129143 0 0 1-13.129143 13.129143h-91.830857v65.609143a13.129143 13.129143 0 0 1-13.129143 13.129142h-26.258285a13.129143 13.129143 0 0 1-13.129143-13.129142V498.834286H260.571429a13.129143 13.129143 0 0 1-13.129143-13.129143V328.265143a13.129143 13.129143 0 0 1 13.129143-13.129143h91.721142V275.785143a13.129143 13.129143 0 0 1 13.129143-13.129143h26.258286a13.129143 13.129143 0 0 1 13.238857 13.129143z m236.178286 13.129143a104.96 104.96 0 0 1 104.96 104.96v26.258285a26.258286 26.258286 0 1 1-52.48 0v-26.258285a52.48 52.48 0 0 0-52.48-52.48h-52.589714a26.258286 26.258286 0 0 1 0-52.48z m-288.914286 78.592H299.922286v78.738285h52.370285z m104.96 0h-52.333714v78.738285h52.48z" fill="#FFFFFF" p-id="7468"></path></svg>